# MagicaVoxel @ Ephtracy

# group
o Default

# material
mtllib explosion_down2.mtl
usemtl palette

# normals
vn -1 0 0
vn 1 0 0
vn 0 0 1
vn 0 0 -1
vn 0 -1 0
vn 0 1 0

# texcoords
vt 0.0175781 0.5
vt 0.0214844 0.5
vt 0.0371094 0.5

# verts
v -1.1 -1.6 0.3
v -1.1 -1.6 -0.5
v -1.1 -1.4 0.6
v -1.1 -1.4 0.3
v -1.1 -1.4 -0.5
v -1.1 -1.4 -0.8
v -1.1 -1.3 1
v -1.1 -1.3 0.6
v -1.1 -1.3 -0.8
v -1.1 -1.3 -1.2
v -1.1 -1 1
v -1.1 -1 0.6
v -1.1 -1 -0.8
v -1.1 -1 -1.2
v -1.1 -0.7 1
v -1.1 -0.7 0.3
v -1.1 -0.7 -0.5
v -1.1 -0.7 -1.2
v -1.1 0.1 1
v -1.1 0.1 0.3
v -1.1 0.1 -0.5
v -1.1 0.1 -1.2
v -1.1 0.4 1
v -1.1 0.4 0.6
v -1.1 0.4 -0.8
v -1.1 0.4 -1.2
v -1.1 0.7 1
v -1.1 0.7 0.6
v -1.1 0.7 -0.8
v -1.1 0.7 -1.2
v -1.1 0.8 0.6
v -1.1 0.8 0.3
v -1.1 0.8 -0.5
v -1.1 0.8 -0.8
v -1.1 1 0.3
v -1.1 1 -0.5
v 1.1 -1.6 0.3
v 1.1 -1.6 -0.5
v 1.1 -1.4 0.6
v 1.1 -1.4 0.3
v 1.1 -1.4 -0.5
v 1.1 -1.4 -0.8
v 1.1 -1.3 1
v 1.1 -1.3 0.6
v 1.1 -1.3 -0.8
v 1.1 -1.3 -1.2
v 1.1 -1 1
v 1.1 -1 0.6
v 1.1 -1 -0.8
v 1.1 -1 -1.2
v 1.1 -0.7 1
v 1.1 -0.7 0.3
v 1.1 -0.7 -0.5
v 1.1 -0.7 -1.2
v 1.1 0.1 1
v 1.1 0.1 0.3
v 1.1 0.1 -0.5
v 1.1 0.1 -1.2
v 1.1 0.4 1
v 1.1 0.4 0.6
v 1.1 0.4 -0.8
v 1.1 0.4 -1.2
v 1.1 0.7 1
v 1.1 0.7 0.6
v 1.1 0.7 -0.8
v 1.1 0.7 -1.2
v 1.1 0.8 0.6
v 1.1 0.8 0.3
v 1.1 0.8 -0.5
v 1.1 0.8 -0.8
v 1.1 1 0.3
v 1.1 1 -0.5
v -1.1 -1.3 1
v -1.1 -1 1
v -1.1 -0.7 1
v -1.1 0.1 1
v -1.1 0.4 1
v -1.1 0.7 1
v 1.1 -1.3 1
v 1.1 -1 1
v 1.1 -0.7 1
v 1.1 0.1 1
v 1.1 0.4 1
v 1.1 0.7 1
v -1.1 -1.4 0.6
v -1.1 -1.3 0.6
v -1.1 0.7 0.6
v -1.1 0.8 0.6
v 1.1 -1.4 0.6
v 1.1 -1.3 0.6
v 1.1 0.7 0.6
v 1.1 0.8 0.6
v -1.1 -1.6 0.3
v -1.1 -1.4 0.3
v -1.1 0.8 0.3
v -1.1 1 0.3
v 1.1 -1.6 0.3
v 1.1 -1.4 0.3
v 1.1 0.8 0.3
v 1.1 1 0.3
v -1.1 -1.6 -0.5
v -1.1 -1.4 -0.5
v -1.1 0.8 -0.5
v -1.1 1 -0.5
v 1.1 -1.6 -0.5
v 1.1 -1.4 -0.5
v 1.1 0.8 -0.5
v 1.1 1 -0.5
v -1.1 -1.4 -0.8
v -1.1 -1.3 -0.8
v -1.1 0.7 -0.8
v -1.1 0.8 -0.8
v 1.1 -1.4 -0.8
v 1.1 -1.3 -0.8
v 1.1 0.7 -0.8
v 1.1 0.8 -0.8
v -1.1 -1.3 -1.2
v -1.1 -1 -1.2
v -1.1 -0.7 -1.2
v -1.1 0.1 -1.2
v -1.1 0.4 -1.2
v -1.1 0.7 -1.2
v 1.1 -1.3 -1.2
v 1.1 -1 -1.2
v 1.1 -0.7 -1.2
v 1.1 0.1 -1.2
v 1.1 0.4 -1.2
v 1.1 0.7 -1.2
v -1.1 -1.6 0.3
v 1.1 -1.6 0.3
v -1.1 -1.6 -0.5
v 1.1 -1.6 -0.5
v -1.1 -1.4 0.6
v 1.1 -1.4 0.6
v -1.1 -1.4 0.3
v 1.1 -1.4 0.3
v -1.1 -1.4 -0.5
v 1.1 -1.4 -0.5
v -1.1 -1.4 -0.8
v 1.1 -1.4 -0.8
v -1.1 -1.3 1
v 1.1 -1.3 1
v -1.1 -1.3 0.6
v 1.1 -1.3 0.6
v -1.1 -1.3 -0.8
v 1.1 -1.3 -0.8
v -1.1 -1.3 -1.2
v 1.1 -1.3 -1.2
v -1.1 0.7 1
v 1.1 0.7 1
v -1.1 0.7 0.6
v 1.1 0.7 0.6
v -1.1 0.7 -0.8
v 1.1 0.7 -0.8
v -1.1 0.7 -1.2
v 1.1 0.7 -1.2
v -1.1 0.8 0.6
v 1.1 0.8 0.6
v -1.1 0.8 0.3
v 1.1 0.8 0.3
v -1.1 0.8 -0.5
v 1.1 0.8 -0.5
v -1.1 0.8 -0.8
v 1.1 0.8 -0.8
v -1.1 1 0.3
v 1.1 1 0.3
v -1.1 1 -0.5
v 1.1 1 -0.5

# faces
f 4/2/1 2/2/1 1/2/1
f 5/2/1 2/2/1 4/2/1
f 8/1/1 4/1/1 3/1/1
f 9/1/1 6/1/1 5/1/1
f 11/3/1 8/3/1 7/3/1
f 12/1/1 4/1/1 8/1/1
f 12/3/1 8/3/1 11/3/1
f 13/3/1 10/3/1 9/3/1
f 13/1/1 9/1/1 5/1/1
f 14/3/1 10/3/1 13/3/1
f 15/1/1 12/1/1 11/1/1
f 16/1/1 4/1/1 12/1/1
f 16/1/1 12/1/1 15/1/1
f 16/2/1 5/2/1 4/2/1
f 17/1/1 14/1/1 13/1/1
f 17/2/1 5/2/1 16/2/1
f 17/1/1 13/1/1 5/1/1
f 18/1/1 14/1/1 17/1/1
f 19/2/1 16/2/1 15/2/1
f 19/2/1 17/2/1 16/2/1
f 19/2/1 18/2/1 17/2/1
f 20/2/1 18/2/1 19/2/1
f 21/2/1 18/2/1 20/2/1
f 22/2/1 18/2/1 21/2/1
f 23/1/1 20/1/1 19/1/1
f 24/1/1 20/1/1 23/1/1
f 25/1/1 22/1/1 21/1/1
f 26/1/1 22/1/1 25/1/1
f 27/3/1 24/3/1 23/3/1
f 28/1/1 20/1/1 24/1/1
f 28/3/1 24/3/1 27/3/1
f 29/1/1 25/1/1 21/1/1
f 29/3/1 26/3/1 25/3/1
f 30/3/1 26/3/1 29/3/1
f 31/1/1 20/1/1 28/1/1
f 32/2/1 21/2/1 20/2/1
f 32/1/1 20/1/1 31/1/1
f 33/1/1 29/1/1 21/1/1
f 33/2/1 21/2/1 32/2/1
f 34/1/1 29/1/1 33/1/1
f 35/2/1 33/2/1 32/2/1
f 36/2/1 33/2/1 35/2/1
f 37/2/2 38/2/2 40/2/2
f 40/2/2 38/2/2 41/2/2
f 39/1/2 40/1/2 44/1/2
f 41/1/2 42/1/2 45/1/2
f 43/3/2 44/3/2 47/3/2
f 44/1/2 40/1/2 48/1/2
f 47/3/2 44/3/2 48/3/2
f 45/3/2 46/3/2 49/3/2
f 41/1/2 45/1/2 49/1/2
f 49/3/2 46/3/2 50/3/2
f 47/1/2 48/1/2 51/1/2
f 48/1/2 40/1/2 52/1/2
f 51/1/2 48/1/2 52/1/2
f 40/2/2 41/2/2 52/2/2
f 49/1/2 50/1/2 53/1/2
f 52/2/2 41/2/2 53/2/2
f 41/1/2 49/1/2 53/1/2
f 53/1/2 50/1/2 54/1/2
f 51/2/2 52/2/2 55/2/2
f 52/2/2 53/2/2 55/2/2
f 53/2/2 54/2/2 55/2/2
f 55/2/2 54/2/2 56/2/2
f 56/2/2 54/2/2 57/2/2
f 57/2/2 54/2/2 58/2/2
f 55/1/2 56/1/2 59/1/2
f 59/1/2 56/1/2 60/1/2
f 57/1/2 58/1/2 61/1/2
f 61/1/2 58/1/2 62/1/2
f 59/3/2 60/3/2 63/3/2
f 60/1/2 56/1/2 64/1/2
f 63/3/2 60/3/2 64/3/2
f 57/1/2 61/1/2 65/1/2
f 61/3/2 62/3/2 65/3/2
f 65/3/2 62/3/2 66/3/2
f 64/1/2 56/1/2 67/1/2
f 56/2/2 57/2/2 68/2/2
f 67/1/2 56/1/2 68/1/2
f 57/1/2 65/1/2 69/1/2
f 68/2/2 57/2/2 69/2/2
f 69/1/2 65/1/2 70/1/2
f 68/2/2 69/2/2 71/2/2
f 71/2/2 69/2/2 72/2/2
f 79/3/3 74/3/3 73/3/3
f 80/1/3 75/1/3 74/1/3
f 80/3/3 74/3/3 79/3/3
f 81/2/3 76/2/3 75/2/3
f 81/1/3 75/1/3 80/1/3
f 82/1/3 77/1/3 76/1/3
f 82/2/3 76/2/3 81/2/3
f 83/3/3 78/3/3 77/3/3
f 83/1/3 77/1/3 82/1/3
f 84/3/3 78/3/3 83/3/3
f 89/1/3 86/1/3 85/1/3
f 90/1/3 86/1/3 89/1/3
f 91/1/3 88/1/3 87/1/3
f 92/1/3 88/1/3 91/1/3
f 97/2/3 94/2/3 93/2/3
f 98/2/3 94/2/3 97/2/3
f 99/2/3 96/2/3 95/2/3
f 100/2/3 96/2/3 99/2/3
f 101/2/4 102/2/4 105/2/4
f 105/2/4 102/2/4 106/2/4
f 103/2/4 104/2/4 107/2/4
f 107/2/4 104/2/4 108/2/4
f 109/1/4 110/1/4 113/1/4
f 113/1/4 110/1/4 114/1/4
f 111/1/4 112/1/4 115/1/4
f 115/1/4 112/1/4 116/1/4
f 117/3/4 118/3/4 123/3/4
f 118/1/4 119/1/4 124/1/4
f 123/3/4 118/3/4 124/3/4
f 119/2/4 120/2/4 125/2/4
f 124/1/4 119/1/4 125/1/4
f 120/1/4 121/1/4 126/1/4
f 125/2/4 120/2/4 126/2/4
f 121/3/4 122/3/4 127/3/4
f 126/1/4 121/1/4 127/1/4
f 127/3/4 122/3/4 128/3/4
f 131/2/5 130/2/5 129/2/5
f 132/2/5 130/2/5 131/2/5
f 135/1/5 134/1/5 133/1/5
f 136/1/5 134/1/5 135/1/5
f 139/1/5 138/1/5 137/1/5
f 140/1/5 138/1/5 139/1/5
f 143/3/5 142/3/5 141/3/5
f 144/3/5 142/3/5 143/3/5
f 147/3/5 146/3/5 145/3/5
f 148/3/5 146/3/5 147/3/5
f 149/3/6 150/3/6 151/3/6
f 151/3/6 150/3/6 152/3/6
f 153/3/6 154/3/6 155/3/6
f 155/3/6 154/3/6 156/3/6
f 157/1/6 158/1/6 159/1/6
f 159/1/6 158/1/6 160/1/6
f 161/1/6 162/1/6 163/1/6
f 163/1/6 162/1/6 164/1/6
f 165/2/6 166/2/6 167/2/6
f 167/2/6 166/2/6 168/2/6
