# MagicaVoxel @ Ephtracy

# group
o Default

# material
mtllib explosion_right.mtl
usemtl palette

# normals
vn -1 0 0
vn 1 0 0
vn 0 0 1
vn 0 0 -1
vn 0 -1 0
vn 0 1 0

# texcoords
vt 0.0175781 0.5
vt 0.0214844 0.5
vt 0.0371094 0.5

# verts
v -1.1 -1 1.8
v -1.1 -1 -0.4
v -1.1 -0.7 1.8
v -1.1 -0.7 -0.4
v -1.1 -0.4 1.8
v -1.1 -0.4 -0.4
v -1.1 0.4 1.8
v -1.1 0.4 -0.4
v -1.1 0.7 1.8
v -1.1 0.7 -0.4
v -1.1 1 1.8
v -1.1 1 -0.4
v -0.7 -1.1 1.8
v -0.7 -1.1 -0.4
v -0.7 -1 1.8
v -0.7 -1 -0.4
v -0.7 1 1.8
v -0.7 1 -0.4
v -0.7 1.1 1.8
v -0.7 1.1 -0.4
v -0.4 -1.3 1.8
v -0.4 -1.3 -0.4
v -0.4 -1.1 1.8
v -0.4 -1.1 -0.4
v -0.4 1.1 1.8
v -0.4 1.1 -0.4
v -0.4 1.3 1.8
v -0.4 1.3 -0.4
v 0.4 -1.3 1.8
v 0.4 -1.3 -0.4
v 0.4 -1.1 1.8
v 0.4 -1.1 -0.4
v 0.4 1.1 1.8
v 0.4 1.1 -0.4
v 0.4 1.3 1.8
v 0.4 1.3 -0.4
v 0.7 -1.1 1.8
v 0.7 -1.1 -0.4
v 0.7 -1 1.8
v 0.7 -1 -0.4
v 0.7 1 1.8
v 0.7 1 -0.4
v 0.7 1.1 1.8
v 0.7 1.1 -0.4
v 1.1 -1 1.8
v 1.1 -1 -0.4
v 1.1 -0.7 1.8
v 1.1 -0.7 -0.4
v 1.1 -0.4 1.8
v 1.1 -0.4 -0.4
v 1.1 0.4 1.8
v 1.1 0.4 -0.4
v 1.1 0.7 1.8
v 1.1 0.7 -0.4
v 1.1 1 1.8
v 1.1 1 -0.4
v -1.1 -1 1.8
v -1.1 -0.7 1.8
v -1.1 -0.4 1.8
v -1.1 0.4 1.8
v -1.1 0.7 1.8
v -1.1 1 1.8
v -0.7 -1.1 1.8
v -0.7 -1 1.8
v -0.7 -0.7 1.8
v -0.7 0.7 1.8
v -0.7 1 1.8
v -0.7 1.1 1.8
v -0.4 -1.3 1.8
v -0.4 -1.1 1.8
v -0.4 -0.4 1.8
v -0.4 0.4 1.8
v -0.4 1.1 1.8
v -0.4 1.3 1.8
v 0.4 -1.3 1.8
v 0.4 -1.1 1.8
v 0.4 -0.4 1.8
v 0.4 0.4 1.8
v 0.4 1.1 1.8
v 0.4 1.3 1.8
v 0.7 -1.1 1.8
v 0.7 -1 1.8
v 0.7 -0.7 1.8
v 0.7 0.7 1.8
v 0.7 1 1.8
v 0.7 1.1 1.8
v 1.1 -1 1.8
v 1.1 -0.7 1.8
v 1.1 -0.4 1.8
v 1.1 0.4 1.8
v 1.1 0.7 1.8
v 1.1 1 1.8
v -1.1 -1 -0.4
v -1.1 -0.7 -0.4
v -1.1 -0.4 -0.4
v -1.1 0.4 -0.4
v -1.1 0.7 -0.4
v -1.1 1 -0.4
v -0.7 -1.1 -0.4
v -0.7 -1 -0.4
v -0.7 -0.7 -0.4
v -0.7 0.7 -0.4
v -0.7 1 -0.4
v -0.7 1.1 -0.4
v -0.4 -1.3 -0.4
v -0.4 -1.1 -0.4
v -0.4 -0.4 -0.4
v -0.4 0.4 -0.4
v -0.4 1.1 -0.4
v -0.4 1.3 -0.4
v 0.4 -1.3 -0.4
v 0.4 -1.1 -0.4
v 0.4 -0.4 -0.4
v 0.4 0.4 -0.4
v 0.4 1.1 -0.4
v 0.4 1.3 -0.4
v 0.7 -1.1 -0.4
v 0.7 -1 -0.4
v 0.7 -0.7 -0.4
v 0.7 0.7 -0.4
v 0.7 1 -0.4
v 0.7 1.1 -0.4
v 1.1 -1 -0.4
v 1.1 -0.7 -0.4
v 1.1 -0.4 -0.4
v 1.1 0.4 -0.4
v 1.1 0.7 -0.4
v 1.1 1 -0.4
v -0.4 -1.3 1.8
v 0.4 -1.3 1.8
v -0.4 -1.3 -0.4
v 0.4 -1.3 -0.4
v -0.7 -1.1 1.8
v -0.4 -1.1 1.8
v 0.4 -1.1 1.8
v 0.7 -1.1 1.8
v -0.7 -1.1 -0.4
v -0.4 -1.1 -0.4
v 0.4 -1.1 -0.4
v 0.7 -1.1 -0.4
v -1.1 -1 1.8
v -0.7 -1 1.8
v 0.7 -1 1.8
v 1.1 -1 1.8
v -1.1 -1 -0.4
v -0.7 -1 -0.4
v 0.7 -1 -0.4
v 1.1 -1 -0.4
v -1.1 1 1.8
v -0.7 1 1.8
v 0.7 1 1.8
v 1.1 1 1.8
v -1.1 1 -0.4
v -0.7 1 -0.4
v 0.7 1 -0.4
v 1.1 1 -0.4
v -0.7 1.1 1.8
v -0.4 1.1 1.8
v 0.4 1.1 1.8
v 0.7 1.1 1.8
v -0.7 1.1 -0.4
v -0.4 1.1 -0.4
v 0.4 1.1 -0.4
v 0.7 1.1 -0.4
v -0.4 1.3 1.8
v 0.4 1.3 1.8
v -0.4 1.3 -0.4
v 0.4 1.3 -0.4

# faces
f 3/3/1 2/3/1 1/3/1
f 4/3/1 2/3/1 3/3/1
f 5/1/1 4/1/1 3/1/1
f 6/1/1 4/1/1 5/1/1
f 7/2/1 6/2/1 5/2/1
f 8/2/1 6/2/1 7/2/1
f 9/1/1 8/1/1 7/1/1
f 10/1/1 8/1/1 9/1/1
f 11/3/1 10/3/1 9/3/1
f 12/3/1 10/3/1 11/3/1
f 15/1/1 14/1/1 13/1/1
f 16/1/1 14/1/1 15/1/1
f 19/1/1 18/1/1 17/1/1
f 20/1/1 18/1/1 19/1/1
f 23/2/1 22/2/1 21/2/1
f 24/2/1 22/2/1 23/2/1
f 27/2/1 26/2/1 25/2/1
f 28/2/1 26/2/1 27/2/1
f 29/2/2 30/2/2 31/2/2
f 31/2/2 30/2/2 32/2/2
f 33/2/2 34/2/2 35/2/2
f 35/2/2 34/2/2 36/2/2
f 37/1/2 38/1/2 39/1/2
f 39/1/2 38/1/2 40/1/2
f 41/1/2 42/1/2 43/1/2
f 43/1/2 42/1/2 44/1/2
f 45/3/2 46/3/2 47/3/2
f 47/3/2 46/3/2 48/3/2
f 47/1/2 48/1/2 49/1/2
f 49/1/2 48/1/2 50/1/2
f 49/2/2 50/2/2 51/2/2
f 51/2/2 50/2/2 52/2/2
f 51/1/2 52/1/2 53/1/2
f 53/1/2 52/1/2 54/1/2
f 53/3/2 54/3/2 55/3/2
f 55/3/2 54/3/2 56/3/2
f 64/3/3 58/3/3 57/3/3
f 65/1/3 59/1/3 58/1/3
f 65/3/3 58/3/3 64/3/3
f 66/3/3 62/3/3 61/3/3
f 66/1/3 61/1/3 60/1/3
f 67/3/3 62/3/3 66/3/3
f 70/1/3 64/1/3 63/1/3
f 70/1/3 65/1/3 64/1/3
f 71/1/3 59/1/3 65/1/3
f 71/2/3 60/2/3 59/2/3
f 71/1/3 65/1/3 70/1/3
f 72/1/3 68/1/3 67/1/3
f 72/2/3 60/2/3 71/2/3
f 72/1/3 67/1/3 66/1/3
f 72/1/3 66/1/3 60/1/3
f 73/1/3 68/1/3 72/1/3
f 75/2/3 70/2/3 69/2/3
f 75/2/3 74/2/3 73/2/3
f 75/2/3 73/2/3 72/2/3
f 75/2/3 72/2/3 71/2/3
f 75/2/3 71/2/3 70/2/3
f 76/2/3 74/2/3 75/2/3
f 77/2/3 74/2/3 76/2/3
f 78/2/3 74/2/3 77/2/3
f 79/2/3 74/2/3 78/2/3
f 80/2/3 74/2/3 79/2/3
f 81/1/3 77/1/3 76/1/3
f 82/1/3 77/1/3 81/1/3
f 83/1/3 77/1/3 82/1/3
f 84/1/3 79/1/3 78/1/3
f 85/1/3 79/1/3 84/1/3
f 86/1/3 79/1/3 85/1/3
f 87/3/3 83/3/3 82/3/3
f 88/1/3 77/1/3 83/1/3
f 88/3/3 83/3/3 87/3/3
f 89/2/3 78/2/3 77/2/3
f 89/1/3 77/1/3 88/1/3
f 90/1/3 84/1/3 78/1/3
f 90/2/3 78/2/3 89/2/3
f 91/3/3 85/3/3 84/3/3
f 91/1/3 84/1/3 90/1/3
f 92/3/3 85/3/3 91/3/3
f 93/3/4 94/3/4 100/3/4
f 94/1/4 95/1/4 101/1/4
f 100/3/4 94/3/4 101/3/4
f 97/3/4 98/3/4 102/3/4
f 96/1/4 97/1/4 102/1/4
f 102/3/4 98/3/4 103/3/4
f 99/1/4 100/1/4 106/1/4
f 100/1/4 101/1/4 106/1/4
f 101/1/4 95/1/4 107/1/4
f 95/2/4 96/2/4 107/2/4
f 106/1/4 101/1/4 107/1/4
f 103/1/4 104/1/4 108/1/4
f 107/2/4 96/2/4 108/2/4
f 102/1/4 103/1/4 108/1/4
f 96/1/4 102/1/4 108/1/4
f 108/1/4 104/1/4 109/1/4
f 105/2/4 106/2/4 111/2/4
f 109/2/4 110/2/4 111/2/4
f 108/2/4 109/2/4 111/2/4
f 107/2/4 108/2/4 111/2/4
f 106/2/4 107/2/4 111/2/4
f 111/2/4 110/2/4 112/2/4
f 112/2/4 110/2/4 113/2/4
f 113/2/4 110/2/4 114/2/4
f 114/2/4 110/2/4 115/2/4
f 115/2/4 110/2/4 116/2/4
f 112/1/4 113/1/4 117/1/4
f 117/1/4 113/1/4 118/1/4
f 118/1/4 113/1/4 119/1/4
f 114/1/4 115/1/4 120/1/4
f 120/1/4 115/1/4 121/1/4
f 121/1/4 115/1/4 122/1/4
f 118/3/4 119/3/4 123/3/4
f 119/1/4 113/1/4 124/1/4
f 123/3/4 119/3/4 124/3/4
f 113/2/4 114/2/4 125/2/4
f 124/1/4 113/1/4 125/1/4
f 114/1/4 120/1/4 126/1/4
f 125/2/4 114/2/4 126/2/4
f 120/3/4 121/3/4 127/3/4
f 126/1/4 120/1/4 127/1/4
f 127/3/4 121/3/4 128/3/4
f 131/2/5 130/2/5 129/2/5
f 132/2/5 130/2/5 131/2/5
f 137/1/5 134/1/5 133/1/5
f 138/1/5 134/1/5 137/1/5
f 139/1/5 136/1/5 135/1/5
f 140/1/5 136/1/5 139/1/5
f 145/3/5 142/3/5 141/3/5
f 146/3/5 142/3/5 145/3/5
f 147/3/5 144/3/5 143/3/5
f 148/3/5 144/3/5 147/3/5
f 149/3/6 150/3/6 153/3/6
f 153/3/6 150/3/6 154/3/6
f 151/3/6 152/3/6 155/3/6
f 155/3/6 152/3/6 156/3/6
f 157/1/6 158/1/6 161/1/6
f 161/1/6 158/1/6 162/1/6
f 159/1/6 160/1/6 163/1/6
f 163/1/6 160/1/6 164/1/6
f 165/2/6 166/2/6 167/2/6
f 167/2/6 166/2/6 168/2/6
